<svg xmlns="http://www.w3.org/2000/svg" xmlns:xlink="http://www.w3.org/1999/xlink" version="1.1" viewBox="150 350 720 380">
<!-- Upper part of the planetary ring -->
<g transform="matrix(3.05 -1.76 1.76 3.05 321.38 561.13)">
<path style="stroke: rgb(50,200,50); stroke-width: 10; stroke-dasharray: none; stroke-linecap: butt; stroke-dashoffset: 0; stroke-linejoin: miter; stroke-miterlimit: 4; fill: none; fill-rule: nonzero; opacity: 1;" vector-effect="non-scaling-stroke" transform=" translate(0, -6.5)" d="M -40 0 C -40 7.179701747800315 -22.091389993231736 13 0 13 C 22.091389993231736 13 40 7.179701747800315 40 0" stroke-linecap="round" />
</g>
<!-- Planet (circle) -->
<g transform="matrix(3.52 0 0 3.52 309.14 540)">
<circle style="stroke: none; stroke-width: 1; stroke-dasharray: none; stroke-linecap: butt; stroke-dashoffset: 0; stroke-linejoin: miter; stroke-miterlimit: 4; fill: rgb(138,43,226); fill-rule: nonzero; opacity: 1;" vector-effect="non-scaling-stroke" cx="0" cy="0" r="30" />
</g>
<!-- Lower part of the planetary ring -->
<g transform="matrix(3.05 -1.76 1.76 3.05 298.49 521.48)">
<path style="stroke: rgb(50,200,50); stroke-width: 10; stroke-dasharray: none; stroke-linecap: butt; stroke-dashoffset: 0; stroke-linejoin: miter; stroke-miterlimit: 4; fill: none; fill-rule: nonzero; opacity: 1;" vector-effect="non-scaling-stroke" transform=" translate(0, 6.5)" d="M -40 0 C -40 -7.179701747800315 -22.091389993231736 -13 0 -13 C 22.091389993231736 -13 40 -7.179701747800318 40 -3.184081677783118e-15" stroke-linecap="round" />
</g>
<!-- Text "rbis" -->
<g transform="matrix(2.35 0 0 2.35 649.84 560.49)" style="">
		<text xml:space="preserve" font-family="Arial, sans-serif" font-size="100" font-style="normal" font-weight="bold" style="stroke: none; stroke-width: 1; stroke-dasharray: none; stroke-linecap: butt; stroke-dashoffset: 0; stroke-linejoin: miter; stroke-miterlimit: 4; fill: rgb(138,43,226); fill-rule: nonzero; opacity: 1; white-space: pre;"><tspan x="-91.7" y="31.41">rbis</tspan></text>
</g>
</svg>
